<?xml version="1.0" encoding="UTF-8" standalone="no"?>
<svg
   xmlns:dc="http://purl.org/dc/elements/1.1/"
   xmlns:cc="http://creativecommons.org/ns#"
   xmlns:rdf="http://www.w3.org/1999/02/22-rdf-syntax-ns#"
   xmlns:svg="http://www.w3.org/2000/svg"
   xmlns="http://www.w3.org/2000/svg"
   xmlns:sodipodi="http://sodipodi.sourceforge.net/DTD/sodipodi-0.dtd"
   xmlns:inkscape="http://www.inkscape.org/namespaces/inkscape"
   version="1.1"
   width="63.98571"
   height="63.98571"
   id="svg10"
   viewBox="0 0 63.98571 63.985708"
   sodipodi:docname="logo.svg"
   inkscape:version="0.92.4 5da689c313, 2019-01-14">
  <metadata
     id="metadata16">
    <rdf:RDF>
      <cc:Work
         rdf:about="">
        <dc:format>image/svg+xml</dc:format>
        <dc:type
           rdf:resource="http://purl.org/dc/dcmitype/StillImage" />
        <dc:title></dc:title>
      </cc:Work>
    </rdf:RDF>
  </metadata>
  <defs
     id="defs14" />
  <sodipodi:namedview
     pagecolor="#ffffff"
     bordercolor="#666666"
     borderopacity="1"
     objecttolerance="10"
     gridtolerance="10"
     guidetolerance="10"
     inkscape:pageopacity="0"
     inkscape:pageshadow="2"
     inkscape:window-width="1920"
     inkscape:window-height="1026"
     id="namedview12"
     showgrid="false"
     fit-margin-top="0"
     fit-margin-left="0"
     fit-margin-right="0"
     fit-margin-bottom="0"
     inkscape:zoom="4.4853767"
     inkscape:cx="-28.905121"
     inkscape:cy="16.844309"
     inkscape:window-x="0"
     inkscape:window-y="28"
     inkscape:window-maximized="1"
     inkscape:current-layer="svg10" />
  <path
     d="m -36.81665,-69.00198 v 178.56 h -100.8 v -178.56 z"
     style="fill:none"
     id="path2"
     inkscape:connector-curvature="0" />
  <rect
     style="fill:none;stroke:none;stroke-width:0.91111112"
     id="rect18"
     width="63.98571"
     height="63.98571"
     x="0"
     y="0" />
  <path
     d="m 27.75255,43.88412 c -2.1098,1.4731 -4.1054,2.6195 -6.0355,3.3945 -5.7345,2.3034 -9.1055,3.3545 -11.2527,3.6938 -4.4489996,0.703 -8.1421996,-1.8882 -2.2951996,-5.8467 2.5275996,-1.711 6.2922996,-3.2616 10.3378996,-3.4348 4.9836,-0.2134 7.4948,0.724 9.2455,2.1932 z m 33.213,-32.6724 c -2.4117,0.8351 -5.5814,3.905 -7.3981,6.0732 -1.4083,1.6812 -3.0445,3.6757 -5.243,6.2631 -2.8976,-6.3541 -6.7802,-9.6392 -12.5161,-12.5594 -8.5261,-4.3412997 -18.8076,-4.0435997 -20.5495,5.8411 -2.3136,13.1272 18.7336,19.923 19.2753,10.5068 0.1477,-2.5662 -0.9184,-4.7191 -2.6742,-5.8671 -0.8674,-0.5672 -1.6554,-0.5848 -1.5097,-0.0777 0.4255,1.4786 2.7615,2.7511 0.1451,5.1458 -1.7762,1.6259 -5.86,1.074 -7.7082,0.5303 -5.4865,-1.6146 -7.977,-9.6083 -3.7939,-13.894 5.8442,-5.9881997 13.1519,-3.0078 19.3955,1.0077 3.4497,2.2184 6.5965,5.0451 8.3174,11.0804 -5.4763,6.4451 -11.4046,13.1763 -17.3526,17.4872 -1.9142,-1.4224 -3.7763,-2.6371 -6.2098,-3.0793 -4.7033,-0.8546 -11.8676,0.6888 -16.2266996,3.0387 -6.55080001,3.5303 -7.56560001,12.8382 2.5546,13.4867 5.4387996,0.3487 13.1637996,-4.6355 20.1848996,-10.3742 1.8859,2.2011 4.8521,5.1001 7.824,6.4114 13.1076,5.783 15.7977,-13.6159 13.2392,-22.7631 -0.5432,-1.9414 -0.8249,-2.8913 -1.5565,-4.4957 3.3672,-4.0088 6.2733,-7.8542 10.1599,-11.3448 1.9018,-1.7076 3.2837,-2.9855 1.6424,-2.4171 z m -13.6976,16.0183 c 0.7503,2.6317 0.9108,4.6973 0.8623,8.2318 -0.1573,11.4766 -6.1514,16.1297 -16.827,8.685 4.1817,-3.7111 7.9157,-7.5668 10.5058,-10.5403 2.177,-2.4999 3.4296,-3.9603 5.4589,-6.3765 z"
     style="fill:#ffffff;fill-rule:evenodd;stroke:none"
     id="path8"
     inkscape:connector-curvature="0" />
</svg>
